<mxfile host="app.diagrams.net" agent="Mozilla/5.0 (Windows NT 10.0; Win64; x64) AppleWebKit/537.36 (KHTML, like Gecko) Chrome/141.0.0.0 Safari/537.36" version="28.2.5">
  <diagram name="Trang-1" id="n2l8kIQzBQYOINg-zM32">
    <mxGraphModel dx="1042" dy="692" grid="1" gridSize="10" guides="1" tooltips="1" connect="1" arrows="1" fold="1" page="1" pageScale="1" pageWidth="827" pageHeight="1169" math="0" shadow="0">
      <root>
        <mxCell id="xhvXuannrQBQO4RMrvDz-0" />
        <mxCell id="xhvXuannrQBQO4RMrvDz-1" parent="xhvXuannrQBQO4RMrvDz-0" />
        <mxCell id="MwmVdKDOFrrXwd4T8RRg-2" style="edgeStyle=orthogonalEdgeStyle;rounded=0;orthogonalLoop=1;jettySize=auto;html=1;exitX=0.5;exitY=1;exitDx=0;exitDy=0;" edge="1" parent="xhvXuannrQBQO4RMrvDz-1" source="MwmVdKDOFrrXwd4T8RRg-0">
          <mxGeometry relative="1" as="geometry">
            <mxPoint x="400" y="120" as="targetPoint" />
          </mxGeometry>
        </mxCell>
        <mxCell id="MwmVdKDOFrrXwd4T8RRg-0" value="bắt đầu" style="ellipse;whiteSpace=wrap;html=1;" vertex="1" parent="xhvXuannrQBQO4RMrvDz-1">
          <mxGeometry x="340" y="10" width="120" height="80" as="geometry" />
        </mxCell>
        <mxCell id="MwmVdKDOFrrXwd4T8RRg-4" style="edgeStyle=orthogonalEdgeStyle;rounded=0;orthogonalLoop=1;jettySize=auto;html=1;exitX=0.5;exitY=1;exitDx=0;exitDy=0;" edge="1" parent="xhvXuannrQBQO4RMrvDz-1" source="MwmVdKDOFrrXwd4T8RRg-3">
          <mxGeometry relative="1" as="geometry">
            <mxPoint x="400" y="230" as="targetPoint" />
          </mxGeometry>
        </mxCell>
        <mxCell id="MwmVdKDOFrrXwd4T8RRg-3" value="nhập vào 1 số nguyên n" style="shape=parallelogram;perimeter=parallelogramPerimeter;whiteSpace=wrap;html=1;fixedSize=1;" vertex="1" parent="xhvXuannrQBQO4RMrvDz-1">
          <mxGeometry x="315" y="120" width="170" height="80" as="geometry" />
        </mxCell>
        <mxCell id="MwmVdKDOFrrXwd4T8RRg-6" style="edgeStyle=orthogonalEdgeStyle;rounded=0;orthogonalLoop=1;jettySize=auto;html=1;exitX=1;exitY=0.5;exitDx=0;exitDy=0;" edge="1" parent="xhvXuannrQBQO4RMrvDz-1" source="MwmVdKDOFrrXwd4T8RRg-5">
          <mxGeometry relative="1" as="geometry">
            <mxPoint x="520" y="270" as="targetPoint" />
          </mxGeometry>
        </mxCell>
        <mxCell id="MwmVdKDOFrrXwd4T8RRg-7" value="Đ" style="edgeLabel;html=1;align=center;verticalAlign=middle;resizable=0;points=[];" vertex="1" connectable="0" parent="MwmVdKDOFrrXwd4T8RRg-6">
          <mxGeometry x="0.01" y="1" relative="1" as="geometry">
            <mxPoint as="offset" />
          </mxGeometry>
        </mxCell>
        <mxCell id="MwmVdKDOFrrXwd4T8RRg-9" style="edgeStyle=orthogonalEdgeStyle;rounded=0;orthogonalLoop=1;jettySize=auto;html=1;exitX=0;exitY=0.5;exitDx=0;exitDy=0;" edge="1" parent="xhvXuannrQBQO4RMrvDz-1" source="MwmVdKDOFrrXwd4T8RRg-5">
          <mxGeometry relative="1" as="geometry">
            <mxPoint x="270" y="270" as="targetPoint" />
          </mxGeometry>
        </mxCell>
        <mxCell id="MwmVdKDOFrrXwd4T8RRg-10" value="S" style="edgeLabel;html=1;align=center;verticalAlign=middle;resizable=0;points=[];" vertex="1" connectable="0" parent="MwmVdKDOFrrXwd4T8RRg-9">
          <mxGeometry x="-0.12" y="1" relative="1" as="geometry">
            <mxPoint as="offset" />
          </mxGeometry>
        </mxCell>
        <mxCell id="MwmVdKDOFrrXwd4T8RRg-5" value="n % 2" style="rhombus;whiteSpace=wrap;html=1;" vertex="1" parent="xhvXuannrQBQO4RMrvDz-1">
          <mxGeometry x="360" y="230" width="80" height="80" as="geometry" />
        </mxCell>
        <mxCell id="MwmVdKDOFrrXwd4T8RRg-8" value="n là số chẵn" style="shape=parallelogram;perimeter=parallelogramPerimeter;whiteSpace=wrap;html=1;fixedSize=1;" vertex="1" parent="xhvXuannrQBQO4RMrvDz-1">
          <mxGeometry x="510" y="240" width="120" height="60" as="geometry" />
        </mxCell>
        <mxCell id="MwmVdKDOFrrXwd4T8RRg-11" value="n là số lẻ" style="shape=parallelogram;perimeter=parallelogramPerimeter;whiteSpace=wrap;html=1;fixedSize=1;" vertex="1" parent="xhvXuannrQBQO4RMrvDz-1">
          <mxGeometry x="160" y="240" width="120" height="60" as="geometry" />
        </mxCell>
        <mxCell id="MwmVdKDOFrrXwd4T8RRg-12" value="kết thúc" style="ellipse;whiteSpace=wrap;html=1;" vertex="1" parent="xhvXuannrQBQO4RMrvDz-1">
          <mxGeometry x="340" y="340" width="120" height="80" as="geometry" />
        </mxCell>
        <mxCell id="MwmVdKDOFrrXwd4T8RRg-16" value="" style="endArrow=none;html=1;rounded=0;entryX=0.5;entryY=1;entryDx=0;entryDy=0;" edge="1" parent="xhvXuannrQBQO4RMrvDz-1" target="MwmVdKDOFrrXwd4T8RRg-11">
          <mxGeometry width="50" height="50" relative="1" as="geometry">
            <mxPoint x="220" y="380" as="sourcePoint" />
            <mxPoint x="440" y="330" as="targetPoint" />
          </mxGeometry>
        </mxCell>
        <mxCell id="MwmVdKDOFrrXwd4T8RRg-17" value="" style="endArrow=classic;html=1;rounded=0;entryX=0;entryY=0.5;entryDx=0;entryDy=0;" edge="1" parent="xhvXuannrQBQO4RMrvDz-1" target="MwmVdKDOFrrXwd4T8RRg-12">
          <mxGeometry width="50" height="50" relative="1" as="geometry">
            <mxPoint x="220" y="380" as="sourcePoint" />
            <mxPoint x="440" y="330" as="targetPoint" />
          </mxGeometry>
        </mxCell>
        <mxCell id="MwmVdKDOFrrXwd4T8RRg-18" value="" style="endArrow=none;html=1;rounded=0;entryX=0.5;entryY=1;entryDx=0;entryDy=0;" edge="1" parent="xhvXuannrQBQO4RMrvDz-1" target="MwmVdKDOFrrXwd4T8RRg-8">
          <mxGeometry width="50" height="50" relative="1" as="geometry">
            <mxPoint x="570" y="380" as="sourcePoint" />
            <mxPoint x="440" y="330" as="targetPoint" />
          </mxGeometry>
        </mxCell>
        <mxCell id="MwmVdKDOFrrXwd4T8RRg-19" value="" style="endArrow=classic;html=1;rounded=0;entryX=1;entryY=0.5;entryDx=0;entryDy=0;" edge="1" parent="xhvXuannrQBQO4RMrvDz-1" target="MwmVdKDOFrrXwd4T8RRg-12">
          <mxGeometry width="50" height="50" relative="1" as="geometry">
            <mxPoint x="570" y="380" as="sourcePoint" />
            <mxPoint x="440" y="330" as="targetPoint" />
          </mxGeometry>
        </mxCell>
      </root>
    </mxGraphModel>
  </diagram>
</mxfile>
